<?xml version="1.0" encoding="UTF-8"?>
<!DOCTYPE svg PUBLIC "-//W3C//DTD SVG 1.1//EN" "http://www.w3.org/Graphics/SVG/1.1/DTD/svg11.dtd">
<svg version="1.1" xmlns="http://www.w3.org/2000/svg" xmlns:xlink="http://www.w3.org/1999/xlink" x="0" y="0" width="670" height="180" viewBox="0, 0, 670, 180">
  <g id="Layer_1">
    <g>
      <path d="M117.477,59.389 C114.563,59.389 112.046,60.432 109.928,62.518 C107.87,64.608 106.843,67.108 106.843,70.022 C106.843,72.94 107.87,75.457 109.928,77.571 C112.046,79.629 114.563,80.66 117.477,80.66 C120.395,80.66 122.895,79.629 124.981,77.571 C127.067,75.457 128.111,72.94 128.111,70.022 C128.111,67.108 127.067,64.608 124.981,62.518 C122.895,60.432 120.395,59.389 117.477,59.389 M117.477,54.047 C121.897,54.047 125.655,55.614 128.756,58.743 C131.917,61.875 133.497,65.635 133.497,70.022 C133.497,74.475 131.917,78.233 128.756,81.301 C125.655,84.434 121.897,85.996 117.477,85.996 C113.057,85.996 109.299,84.434 106.198,81.301 C103.069,78.203 101.502,74.442 101.502,70.022 C101.502,65.635 103.069,61.875 106.198,58.743 C109.266,55.614 113.029,54.047 117.477,54.047" fill="#373535"/>
      <path d="M202.596,54.048 L212.633,74.073 L222.67,54.048 L228.608,54.048 L212.633,85.997 L196.658,54.048 z" fill="#373535"/>
      <path d="M425.778,59.389 C422.864,59.389 420.346,60.432 418.229,62.518 C416.171,64.608 415.143,67.108 415.143,70.022 C415.143,72.94 416.171,75.457 418.229,77.571 C420.346,79.629 422.864,80.66 425.778,80.66 C428.696,80.66 431.196,79.629 433.282,77.571 C435.368,75.457 436.415,72.94 436.415,70.022 C436.415,67.108 435.368,64.608 433.282,62.518 C431.196,60.432 428.696,59.389 425.778,59.389 M425.778,54.047 C430.198,54.047 433.96,55.614 437.055,58.743 C440.217,61.875 441.801,65.635 441.801,70.022 C441.801,74.475 440.217,78.233 437.055,81.301 C433.96,84.434 430.198,85.996 425.778,85.996 C421.358,85.996 417.598,84.434 414.499,81.301 C411.37,78.203 409.803,74.442 409.803,70.022 C409.803,65.635 411.37,61.875 414.499,58.743 C417.571,55.614 421.329,54.047 425.778,54.047" fill="#373535"/>
      <path d="M504.499,80.661 C505.972,80.661 507.356,80.38 508.644,79.833 C509.933,79.276 511.062,78.509 512.028,77.526 C512.993,76.544 513.753,75.413 514.304,74.122 C514.856,72.831 515.136,71.468 515.136,70.022 C515.136,68.581 514.856,67.218 514.304,65.927 C513.753,64.638 512.985,63.505 512.003,62.518 C511.02,61.536 509.89,60.768 508.599,60.218 C507.308,59.665 505.944,59.39 504.499,59.39 L499.161,59.39 L499.161,80.661 z M493.866,54.048 L504.499,54.048 C506.679,54.048 508.735,54.47 510.669,55.313 C512.604,56.163 514.296,57.311 515.757,58.768 C517.214,60.225 518.364,61.921 519.208,63.858 C520.052,65.79 520.474,67.843 520.474,70.022 C520.474,72.202 520.052,74.261 519.208,76.192 C518.364,78.128 517.224,79.825 515.778,81.282 C514.337,82.739 512.642,83.888 510.692,84.731 C508.745,85.579 506.679,85.997 504.499,85.997 L493.866,85.997 z" fill="#373535"/>
      <path d="M577.282,59.389 C574.368,59.389 571.852,60.432 569.733,62.518 C567.677,64.608 566.649,67.108 566.649,70.022 C566.649,72.94 567.677,75.457 569.733,77.571 C571.852,79.629 574.368,80.66 577.282,80.66 C580.2,80.66 582.7,79.629 584.786,77.571 C586.874,75.457 587.921,72.94 587.921,70.022 C587.921,67.108 586.874,64.608 584.786,62.518 C582.7,60.432 580.2,59.389 577.282,59.389 M577.282,54.047 C581.702,54.047 585.464,55.614 588.561,58.743 C591.723,61.875 593.305,65.635 593.305,70.022 C593.305,74.475 591.723,78.233 588.561,81.301 C585.464,84.434 581.702,85.996 577.282,85.996 C572.862,85.996 569.104,84.434 566.003,81.301 C562.874,78.203 561.307,74.442 561.307,70.022 C561.307,65.635 562.874,61.875 566.003,58.743 C569.075,55.614 572.835,54.047 577.282,54.047" fill="#373535"/>
      <path d="M619.056,54.048 C621.265,54.048 623.326,54.462 625.245,55.29 C627.165,56.122 628.863,57.271 630.335,58.743 L626.556,62.519 C624.47,60.433 621.97,59.39 619.056,59.39 C617.583,59.39 616.199,59.665 614.913,60.218 C613.622,60.769 612.493,61.532 611.529,62.497 C610.562,63.464 609.794,64.593 609.226,65.878 C608.658,67.169 608.374,68.55 608.374,70.023 C608.374,71.495 608.658,72.88 609.226,74.167 C609.794,75.458 610.554,76.585 611.503,77.552 C612.456,78.517 613.581,79.277 614.888,79.833 C616.191,80.38 617.583,80.661 619.056,80.661 C621.939,80.661 624.443,79.63 626.556,77.571 L630.335,81.302 C628.863,82.775 627.165,83.927 625.245,84.755 C623.326,85.583 621.265,85.997 619.056,85.997 C616.845,85.997 614.775,85.579 612.839,84.732 C610.908,83.888 609.21,82.747 607.753,81.302 C606.296,79.861 605.144,78.173 604.3,76.241 C603.454,74.304 603.033,72.236 603.033,70.023 C603.033,67.876 603.454,65.829 604.3,63.878 C605.144,61.929 606.296,60.226 607.753,58.769 C609.21,57.312 610.908,56.163 612.839,55.314 C614.775,54.47 616.845,54.048 619.056,54.048" fill="#373535"/>
      <path d="M166.965,80.659 L166.965,80.661 L150.992,80.661 L150.992,59.345 C150.992,56.423 148.623,54.048 145.696,54.048 L145.696,59.345 L145.696,85.997 L166.965,85.997 C169.916,85.997 172.307,83.606 172.307,80.659 z" fill="#373535"/>
      <path d="M246.102,80.661 L246.102,72.692 L256.784,72.692 C259.706,72.692 262.077,70.323 262.077,67.401 L256.784,67.401 L246.102,67.401 L246.102,59.39 L256.784,59.39 C259.731,59.39 262.121,56.999 262.121,54.048 L256.784,54.048 L240.809,54.048 L240.809,85.997 L256.784,85.997 C259.731,85.997 262.121,83.606 262.121,80.661 L256.784,80.661 z" fill="#373535"/>
      <path d="M290.954,70.022 L280.275,69.977 L280.275,59.389 L290.954,59.389 C292.399,59.389 293.641,59.913 294.683,60.956 C295.727,61.999 296.251,63.241 296.251,64.684 C296.251,66.159 295.727,67.417 294.683,68.459 C293.641,69.502 292.399,70.022 290.954,70.022 M299.704,70.711 C300.958,68.903 301.592,66.893 301.592,64.684 C301.592,61.766 300.544,59.266 298.458,57.176 C296.372,55.094 293.872,54.047 290.954,54.047 L274.979,54.047 L274.979,80.68 C274.979,83.606 277.349,85.977 280.275,85.977 L280.275,80.68 L280.275,75.364 L289.298,75.364 L295.468,85.997 L301.592,85.997 L295.009,74.536 C296.907,73.768 298.475,72.495 299.704,70.711" fill="#373535"/>
      <path d="M351.184,68.46 C350.141,69.503 348.899,70.023 347.457,70.023 L336.776,70.023 L336.776,59.39 L347.457,59.39 C348.899,59.39 350.141,59.913 351.184,60.956 C352.231,61.999 352.75,63.257 352.75,64.73 C352.75,66.171 352.231,67.417 351.184,68.46 M354.957,57.177 C352.872,55.095 350.371,54.048 347.457,54.048 L331.483,54.048 L331.483,80.681 C331.483,83.606 333.853,85.978 336.776,85.978 L336.776,80.681 L336.776,75.364 L347.457,75.364 C350.371,75.364 352.872,74.337 354.957,72.278 C357.048,70.165 358.091,67.644 358.091,64.73 C358.091,61.784 357.048,59.267 354.957,57.177" fill="#373535"/>
      <path d="M386.97,70.022 L376.291,69.977 L376.291,59.389 L386.97,59.389 C388.413,59.389 389.656,59.913 390.699,60.956 C391.741,61.999 392.265,63.241 392.265,64.684 C392.265,66.159 391.741,67.417 390.699,68.459 C389.656,69.502 388.413,70.022 386.97,70.022 M395.716,70.711 C396.978,68.903 397.607,66.893 397.607,64.684 C397.607,61.766 396.56,59.266 394.474,57.176 C392.388,55.094 389.888,54.047 386.97,54.047 L370.994,54.047 L370.994,80.68 C370.994,83.606 373.368,85.977 376.291,85.977 L376.291,80.68 L376.291,75.364 L385.313,75.364 L391.482,85.997 L397.607,85.997 L391.025,74.536 C392.923,73.768 394.49,72.495 395.716,70.711" fill="#373535"/>
      <path d="M179.167,54.048 L179.167,59.345 L179.167,80.704 C179.167,83.628 181.537,85.997 184.46,85.997 L184.46,80.704 L184.46,59.345 C184.46,56.423 182.089,54.048 179.167,54.048" fill="#373535"/>
      <path d="M548.65,80.661 L537.966,80.661 L537.966,59.345 C537.966,56.423 535.597,54.048 532.675,54.048 L532.675,59.345 L532.675,85.997 L548.65,85.997 C551.599,85.997 553.99,83.606 553.99,80.661 z" fill="#373535"/>
      <path d="M668.435,54.048 L660.933,54.048 L647.122,67.816 L647.122,59.345 C647.122,56.423 644.751,54.048 641.826,54.048 L641.826,59.345 L641.826,80.681 C641.826,83.607 644.197,85.978 647.122,85.978 L647.122,80.681 L647.122,72.278 L660.933,85.997 L668.435,85.997 L652.458,70.023 z" fill="#373535"/>
      <path d="M475.269,54.003 L475.269,59.345 L475.269,72.692 C475.269,74.872 474.47,76.743 472.874,78.31 C471.341,79.872 469.47,80.661 467.257,80.661 C465.05,80.661 463.162,79.872 461.595,78.31 C460.062,76.776 459.294,74.905 459.294,72.692 L459.294,59.345 C459.294,56.423 456.923,54.048 454.001,54.048 L454.001,59.345 L454.001,72.692 C454.001,76.347 455.289,79.491 457.865,82.134 C460.503,84.706 463.636,85.997 467.257,85.997 C470.91,85.997 474.056,84.706 476.699,82.134 C479.304,79.524 480.611,76.378 480.611,72.692 L480.611,59.345 C480.611,56.394 478.22,54.003 475.269,54.003" fill="#373535"/>
    </g>
    <g>
      <path d="M68.902,75.655 L47.53,75.655 L47.53,54.289 C47.53,50.356 44.341,47.167 40.406,47.167 L40.406,54.289 L40.406,75.655 L19.035,75.655 C15.101,75.655 11.911,78.843 11.911,82.78 L19.035,82.78 L40.406,82.78 L40.406,132.652 C40.406,136.584 43.595,139.776 47.53,139.776 L47.53,132.652 L47.53,82.78 L68.902,82.78 C72.835,82.78 76.025,79.588 76.025,75.655 z" fill="#373535"/>
      <path d="M77.072,19.622 C75.668,21.029 73.997,21.729 72.057,21.729 L57.677,21.729 L57.677,7.414 L72.057,7.414 C73.997,7.414 75.668,8.116 77.072,9.523 C78.482,10.924 79.182,12.62 79.182,14.604 C79.182,16.544 78.482,18.218 77.072,19.622 M82.154,4.436 C79.345,1.631 75.979,0.224 72.057,0.224 L50.553,0.224 L50.553,36.075 C50.553,40.012 53.744,43.203 57.677,43.203 L57.677,36.075 L57.677,28.918 L72.057,28.918 C75.979,28.918 79.345,27.536 82.154,24.766 C84.967,21.917 86.371,18.527 86.371,14.604 C86.371,10.637 84.967,7.25 82.154,4.436" fill="#373535"/>
      <path d="M23.055,7.409 C19.132,7.409 15.748,8.813 12.9,11.619 C10.132,14.43 8.75,17.794 8.75,21.714 C8.75,25.636 10.132,29.024 12.9,31.87 C15.748,34.637 19.132,36.021 23.055,36.021 C26.977,36.021 30.342,34.637 33.15,31.87 C35.957,29.024 37.36,25.636 37.36,21.714 C37.36,17.794 35.957,14.43 33.15,11.619 C30.342,8.813 26.977,7.409 23.055,7.409 M23.055,0.224 C29.001,0.224 34.057,2.331 38.228,6.541 C42.481,10.753 44.604,15.812 44.604,21.714 C44.604,27.701 42.481,32.759 38.228,36.886 C34.057,41.099 29.001,43.203 23.055,43.203 C17.109,43.203 12.052,41.099 7.883,36.886 C3.67,32.718 1.565,27.66 1.565,21.714 C1.565,15.812 3.67,10.753 7.883,6.541 C12.01,2.331 17.068,0.224 23.055,0.224" fill="#373535"/>
    </g>
    <path d="M52.943,155.766 L47.566,155.766 L47.566,169.066 L52.886,169.066 C56.8,169.066 59.783,166.197 59.783,162.416 C59.783,158.635 56.819,155.766 52.943,155.766 z M52.962,167.66 L49.086,167.66 L49.086,157.172 L52.905,157.172 C55.888,157.172 58.244,159.433 58.244,162.435 C58.244,165.418 55.926,167.66 52.962,167.66 z" fill="#373535"/>
    <path d="M62.557,155.766 L62.557,169.066 L71.829,169.066 L71.829,167.66 L64.077,167.66 L64.077,163.024 L70.784,163.024 L70.784,161.637 L64.077,161.637 L64.077,157.172 L71.582,157.172 L71.582,155.766 z" fill="#373535"/>
    <path d="M82.45,158.293 L83.096,156.944 C81.994,156.203 80.417,155.709 78.878,155.709 C76.123,155.709 74.28,157.039 74.28,159.129 C74.28,163.898 81.766,162.017 81.747,165.57 C81.747,166.862 80.55,167.641 78.631,167.641 C77.13,167.641 75.439,166.957 74.204,165.779 L73.52,167.09 C74.774,168.287 76.674,169.123 78.612,169.123 C81.462,169.123 83.419,167.698 83.419,165.494 C83.438,160.668 75.952,162.473 75.952,159.015 C75.952,157.875 77.073,157.191 78.783,157.191 C79.847,157.191 81.253,157.514 82.45,158.293 z" fill="#373535"/>
    <path d="M86.535,155.766 L86.535,169.066 L88.055,169.066 L88.055,155.766 z" fill="#373535"/>
    <path d="M101.355,166.615 C100.329,167.318 99.056,167.736 97.859,167.736 C94.819,167.736 92.368,165.38 92.368,162.416 C92.368,159.471 94.8,157.115 97.84,157.115 C99.322,157.115 100.785,157.685 101.868,158.654 L102.742,157.552 C101.469,156.431 99.683,155.728 97.84,155.728 C93.926,155.728 90.829,158.673 90.829,162.416 C90.829,166.159 93.907,169.123 97.764,169.123 C99.55,169.123 101.393,168.439 102.704,167.394 L102.704,162.568 L101.355,162.568 z" fill="#373535"/>
    <path d="M106.39,155.766 L106.39,169.066 L107.91,169.066 L107.91,158.274 L115.89,169.066 L117.448,169.066 L117.448,155.766 L115.947,155.766 L115.947,166.577 L107.967,155.766 z" fill="#373535"/>
    <path d="M121.495,155.766 L121.495,169.066 L130.767,169.066 L130.767,167.66 L123.015,167.66 L123.015,163.024 L129.722,163.024 L129.722,161.637 L123.015,161.637 L123.015,157.172 L130.52,157.172 L130.52,155.766 z" fill="#373535"/>
    <path d="M144.295,169.066 L141.16,164.525 C143.079,163.917 144.162,162.416 144.162,160.231 C144.162,157.4 142.243,155.766 138.918,155.766 L133.864,155.766 L133.864,169.066 L135.384,169.066 L135.384,164.848 L138.918,164.848 C139.222,164.848 139.507,164.829 139.773,164.81 L142.566,169.066 z M135.384,163.442 L135.384,157.172 L138.918,157.172 C141.331,157.172 142.699,158.236 142.699,160.269 C142.699,162.359 141.331,163.442 138.918,163.442 z" fill="#373535"/>
    <path d="M162.706,169.066 L164.359,169.066 L158.412,155.766 L156.835,155.766 L150.869,169.066 L152.484,169.066 L153.966,165.665 L161.205,165.665 z M154.593,164.259 L157.576,157.419 L160.597,164.259 z" fill="#373535"/>
    <path d="M166.449,155.766 L166.449,169.066 L167.969,169.066 L167.969,158.274 L175.949,169.066 L177.507,169.066 L177.507,155.766 L176.006,155.766 L176.006,166.577 L168.026,155.766 z" fill="#373535"/>
    <path d="M186.931,155.766 L181.554,155.766 L181.554,169.066 L186.874,169.066 C190.788,169.066 193.771,166.197 193.771,162.416 C193.771,158.635 190.807,155.766 186.931,155.766 z M186.95,167.66 L183.074,167.66 L183.074,157.172 L186.893,157.172 C189.876,157.172 192.232,159.433 192.232,162.435 C192.232,165.418 189.914,167.66 186.95,167.66 z" fill="#373535"/>
    <path d="M201.751,155.766 L201.751,169.066 L209.104,169.066 L209.104,167.66 L203.271,167.66 L203.271,155.766 z" fill="#373535"/>
    <path d="M211.574,155.766 L211.574,169.066 L213.094,169.066 L213.094,155.766 z" fill="#373535"/>
    <path d="M217.122,155.766 L217.122,169.066 L218.642,169.066 L218.642,163.328 L224.855,163.328 L224.855,161.941 L218.642,161.941 L218.642,157.172 L225.577,157.172 L225.577,155.766 z" fill="#373535"/>
    <path d="M227.819,155.766 L227.819,169.066 L237.091,169.066 L237.091,167.66 L229.339,167.66 L229.339,163.024 L236.046,163.024 L236.046,161.637 L229.339,161.637 L229.339,157.172 L236.844,157.172 L236.844,155.766 z" fill="#373535"/>
    <path d="M247.712,158.293 L248.358,156.944 C247.256,156.203 245.679,155.709 244.14,155.709 C241.385,155.709 239.542,157.039 239.542,159.129 C239.542,163.898 247.028,162.017 247.009,165.57 C247.009,166.862 245.812,167.641 243.893,167.641 C242.392,167.641 240.701,166.957 239.466,165.779 L238.782,167.09 C240.036,168.287 241.936,169.123 243.874,169.123 C246.724,169.123 248.681,167.698 248.681,165.494 C248.7,160.668 241.214,162.473 241.214,159.015 C241.214,157.875 242.335,157.191 244.045,157.191 C245.109,157.191 246.515,157.514 247.712,158.293 z" fill="#373535"/>
    <path d="M249.992,155.766 L249.992,157.172 L254.324,157.172 L254.324,169.066 L255.844,169.066 L255.844,157.172 L260.195,157.172 L260.195,155.766 z" fill="#373535"/>
    <path d="M272.165,155.766 L270.607,155.766 L266.351,162.739 L262.038,155.766 L260.461,155.766 L265.61,164.487 L265.61,169.066 L267.111,169.066 L267.111,164.449 z" fill="#373535"/>
    <path d="M274.274,155.766 L274.274,169.066 L281.627,169.066 L281.627,167.66 L275.794,167.66 L275.794,155.766 z" fill="#373535"/>
    <path d="M284.097,155.766 L284.097,169.066 L293.369,169.066 L293.369,167.66 L285.617,167.66 L285.617,163.024 L292.324,163.024 L292.324,161.637 L285.617,161.637 L285.617,157.172 L293.122,157.172 L293.122,155.766 z" fill="#373535"/>
    <path d="M307.277,155.766 L301.672,155.766 L301.672,169.066 L307.372,169.066 C310.374,169.066 312.16,167.717 312.16,165.456 C312.16,163.632 311.039,162.378 309.12,162.093 C310.678,161.77 311.571,160.649 311.571,159.091 C311.571,157.001 309.956,155.766 307.277,155.766 z M307.201,161.523 L303.192,161.523 L303.192,157.172 L307.201,157.172 C308.987,157.172 310.032,157.951 310.032,159.319 C310.032,160.725 308.987,161.523 307.201,161.523 z M307.201,167.66 L303.192,167.66 L303.192,162.929 L307.201,162.929 C309.367,162.929 310.621,163.784 310.621,165.266 C310.621,166.805 309.367,167.66 307.201,167.66 z" fill="#373535"/>
    <path d="M315.276,155.766 L315.276,169.066 L322.629,169.066 L322.629,167.66 L316.796,167.66 L316.796,155.766 z" fill="#373535"/>
    <path d="M330.818,155.728 C326.923,155.728 323.845,158.673 323.845,162.416 C323.845,166.159 326.923,169.123 330.818,169.123 C334.694,169.123 337.772,166.159 337.772,162.416 C337.772,158.673 334.694,155.728 330.818,155.728 z M330.818,157.134 C333.782,157.134 336.214,159.471 336.214,162.416 C336.214,165.361 333.782,167.736 330.818,167.736 C327.854,167.736 325.384,165.361 325.384,162.416 C325.384,159.471 327.854,157.134 330.818,157.134 z" fill="#373535"/>
    <path d="M349.818,166.615 C348.792,167.318 347.519,167.736 346.322,167.736 C343.282,167.736 340.831,165.38 340.831,162.416 C340.831,159.471 343.263,157.115 346.303,157.115 C347.785,157.115 349.248,157.685 350.331,158.654 L351.205,157.552 C349.932,156.431 348.146,155.728 346.303,155.728 C342.389,155.728 339.292,158.673 339.292,162.416 C339.292,166.159 342.37,169.123 346.227,169.123 C348.013,169.123 349.856,168.439 351.167,167.394 L351.167,162.568 L349.818,162.568 z" fill="#373535"/>
    <path d="M364.125,166.615 C363.099,167.318 361.826,167.736 360.629,167.736 C357.589,167.736 355.138,165.38 355.138,162.416 C355.138,159.471 357.57,157.115 360.61,157.115 C362.092,157.115 363.555,157.685 364.638,158.654 L365.512,157.552 C364.239,156.431 362.453,155.728 360.61,155.728 C356.696,155.728 353.599,158.673 353.599,162.416 C353.599,166.159 356.677,169.123 360.534,169.123 C362.32,169.123 364.163,168.439 365.474,167.394 L365.474,162.568 L364.125,162.568 z" fill="#373535"/>
    <path d="M369.16,155.766 L369.16,169.066 L378.432,169.066 L378.432,167.66 L370.68,167.66 L370.68,163.024 L377.387,163.024 L377.387,161.637 L370.68,161.637 L370.68,157.172 L378.185,157.172 L378.185,155.766 z" fill="#373535"/>
    <path d="M391.96,169.066 L388.825,164.525 C390.744,163.917 391.827,162.416 391.827,160.231 C391.827,157.4 389.908,155.766 386.583,155.766 L381.529,155.766 L381.529,169.066 L383.049,169.066 L383.049,164.848 L386.583,164.848 C386.887,164.848 387.172,164.829 387.438,164.81 L390.231,169.066 z M383.049,163.442 L383.049,157.172 L386.583,157.172 C388.996,157.172 390.364,158.236 390.364,160.269 C390.364,162.359 388.996,163.442 386.583,163.442 z" fill="#373535"/>
  </g>
</svg>
