<?xml version="1.0" encoding="UTF-8"?>
<!DOCTYPE svg PUBLIC "-//W3C//DTD SVG 1.1//EN" "http://www.w3.org/Graphics/SVG/1.1/DTD/svg11.dtd">
<svg version="1.1" xmlns="http://www.w3.org/2000/svg" xmlns:xlink="http://www.w3.org/1999/xlink" x="0" y="0" width="670" height="140" viewBox="0, 0, 670, 140">
  <g id="Layer_1">
    <g>
      <path d="M117.477,59.389 C114.563,59.389 112.046,60.432 109.928,62.518 C107.87,64.608 106.843,67.108 106.843,70.022 C106.843,72.94 107.87,75.457 109.928,77.571 C112.046,79.629 114.563,80.66 117.477,80.66 C120.395,80.66 122.895,79.629 124.981,77.571 C127.067,75.457 128.111,72.94 128.111,70.022 C128.111,67.108 127.067,64.608 124.981,62.518 C122.895,60.432 120.395,59.389 117.477,59.389 M117.477,54.047 C121.897,54.047 125.655,55.614 128.756,58.743 C131.917,61.875 133.497,65.635 133.497,70.022 C133.497,74.475 131.917,78.233 128.756,81.301 C125.655,84.434 121.897,85.996 117.477,85.996 C113.057,85.996 109.299,84.434 106.198,81.301 C103.069,78.203 101.502,74.442 101.502,70.022 C101.502,65.635 103.069,61.875 106.198,58.743 C109.266,55.614 113.029,54.047 117.477,54.047" fill="#373535"/>
      <path d="M202.596,54.048 L212.633,74.073 L222.67,54.048 L228.608,54.048 L212.633,85.997 L196.658,54.048 z" fill="#373535"/>
      <path d="M425.778,59.389 C422.864,59.389 420.346,60.432 418.229,62.518 C416.171,64.608 415.143,67.108 415.143,70.022 C415.143,72.94 416.171,75.457 418.229,77.571 C420.346,79.629 422.864,80.66 425.778,80.66 C428.696,80.66 431.196,79.629 433.282,77.571 C435.368,75.457 436.415,72.94 436.415,70.022 C436.415,67.108 435.368,64.608 433.282,62.518 C431.196,60.432 428.696,59.389 425.778,59.389 M425.778,54.047 C430.198,54.047 433.96,55.614 437.055,58.743 C440.217,61.875 441.801,65.635 441.801,70.022 C441.801,74.475 440.217,78.233 437.055,81.301 C433.96,84.434 430.198,85.996 425.778,85.996 C421.358,85.996 417.598,84.434 414.499,81.301 C411.37,78.203 409.803,74.442 409.803,70.022 C409.803,65.635 411.37,61.875 414.499,58.743 C417.571,55.614 421.329,54.047 425.778,54.047" fill="#373535"/>
      <path d="M504.499,80.661 C505.972,80.661 507.356,80.38 508.644,79.833 C509.933,79.276 511.062,78.509 512.028,77.526 C512.993,76.544 513.753,75.413 514.304,74.122 C514.856,72.831 515.136,71.468 515.136,70.022 C515.136,68.581 514.856,67.218 514.304,65.927 C513.753,64.638 512.985,63.505 512.003,62.518 C511.02,61.536 509.89,60.768 508.599,60.218 C507.308,59.665 505.944,59.39 504.499,59.39 L499.161,59.39 L499.161,80.661 z M493.866,54.048 L504.499,54.048 C506.679,54.048 508.735,54.47 510.669,55.313 C512.604,56.163 514.296,57.311 515.757,58.768 C517.214,60.225 518.364,61.921 519.208,63.858 C520.052,65.79 520.474,67.843 520.474,70.022 C520.474,72.202 520.052,74.261 519.208,76.192 C518.364,78.128 517.224,79.825 515.778,81.282 C514.337,82.739 512.642,83.888 510.692,84.731 C508.745,85.579 506.679,85.997 504.499,85.997 L493.866,85.997 z" fill="#373535"/>
      <path d="M577.282,59.389 C574.368,59.389 571.852,60.432 569.733,62.518 C567.677,64.608 566.649,67.108 566.649,70.022 C566.649,72.94 567.677,75.457 569.733,77.571 C571.852,79.629 574.368,80.66 577.282,80.66 C580.2,80.66 582.7,79.629 584.786,77.571 C586.874,75.457 587.921,72.94 587.921,70.022 C587.921,67.108 586.874,64.608 584.786,62.518 C582.7,60.432 580.2,59.389 577.282,59.389 M577.282,54.047 C581.702,54.047 585.464,55.614 588.561,58.743 C591.723,61.875 593.305,65.635 593.305,70.022 C593.305,74.475 591.723,78.233 588.561,81.301 C585.464,84.434 581.702,85.996 577.282,85.996 C572.862,85.996 569.104,84.434 566.003,81.301 C562.874,78.203 561.307,74.442 561.307,70.022 C561.307,65.635 562.874,61.875 566.003,58.743 C569.075,55.614 572.835,54.047 577.282,54.047" fill="#373535"/>
      <path d="M619.056,54.048 C621.265,54.048 623.326,54.462 625.245,55.29 C627.165,56.122 628.863,57.271 630.335,58.743 L626.556,62.519 C624.47,60.433 621.97,59.39 619.056,59.39 C617.583,59.39 616.199,59.665 614.913,60.218 C613.622,60.769 612.493,61.532 611.529,62.497 C610.562,63.464 609.794,64.593 609.226,65.878 C608.658,67.169 608.374,68.55 608.374,70.023 C608.374,71.495 608.658,72.88 609.226,74.167 C609.794,75.458 610.554,76.585 611.503,77.552 C612.456,78.517 613.581,79.277 614.888,79.833 C616.191,80.38 617.583,80.661 619.056,80.661 C621.939,80.661 624.443,79.63 626.556,77.571 L630.335,81.302 C628.863,82.775 627.165,83.927 625.245,84.755 C623.326,85.583 621.265,85.997 619.056,85.997 C616.845,85.997 614.775,85.579 612.839,84.732 C610.908,83.888 609.21,82.747 607.753,81.302 C606.296,79.861 605.144,78.173 604.3,76.241 C603.454,74.304 603.033,72.236 603.033,70.023 C603.033,67.876 603.454,65.829 604.3,63.878 C605.144,61.929 606.296,60.226 607.753,58.769 C609.21,57.312 610.908,56.163 612.839,55.314 C614.775,54.47 616.845,54.048 619.056,54.048" fill="#373535"/>
      <path d="M166.965,80.659 L166.965,80.661 L150.992,80.661 L150.992,59.345 C150.992,56.423 148.623,54.048 145.696,54.048 L145.696,59.345 L145.696,85.997 L166.965,85.997 C169.916,85.997 172.307,83.606 172.307,80.659 z" fill="#373535"/>
      <path d="M246.102,80.661 L246.102,72.692 L256.784,72.692 C259.706,72.692 262.077,70.323 262.077,67.401 L256.784,67.401 L246.102,67.401 L246.102,59.39 L256.784,59.39 C259.731,59.39 262.121,56.999 262.121,54.048 L256.784,54.048 L240.809,54.048 L240.809,85.997 L256.784,85.997 C259.731,85.997 262.121,83.606 262.121,80.661 L256.784,80.661 z" fill="#373535"/>
      <path d="M290.954,70.022 L280.275,69.977 L280.275,59.389 L290.954,59.389 C292.399,59.389 293.641,59.913 294.683,60.956 C295.727,61.999 296.251,63.241 296.251,64.684 C296.251,66.159 295.727,67.417 294.683,68.459 C293.641,69.502 292.399,70.022 290.954,70.022 M299.704,70.711 C300.958,68.903 301.592,66.893 301.592,64.684 C301.592,61.766 300.544,59.266 298.458,57.176 C296.372,55.094 293.872,54.047 290.954,54.047 L274.979,54.047 L274.979,80.68 C274.979,83.606 277.349,85.977 280.275,85.977 L280.275,80.68 L280.275,75.364 L289.298,75.364 L295.468,85.997 L301.592,85.997 L295.009,74.536 C296.907,73.768 298.475,72.495 299.704,70.711" fill="#373535"/>
      <path d="M351.184,68.46 C350.141,69.503 348.899,70.023 347.457,70.023 L336.776,70.023 L336.776,59.39 L347.457,59.39 C348.899,59.39 350.141,59.913 351.184,60.956 C352.231,61.999 352.75,63.257 352.75,64.73 C352.75,66.171 352.231,67.417 351.184,68.46 M354.957,57.177 C352.872,55.095 350.371,54.048 347.457,54.048 L331.483,54.048 L331.483,80.681 C331.483,83.606 333.853,85.978 336.776,85.978 L336.776,80.681 L336.776,75.364 L347.457,75.364 C350.371,75.364 352.872,74.337 354.957,72.278 C357.048,70.165 358.091,67.644 358.091,64.73 C358.091,61.784 357.048,59.267 354.957,57.177" fill="#373535"/>
      <path d="M386.97,70.022 L376.291,69.977 L376.291,59.389 L386.97,59.389 C388.413,59.389 389.656,59.913 390.699,60.956 C391.741,61.999 392.265,63.241 392.265,64.684 C392.265,66.159 391.741,67.417 390.699,68.459 C389.656,69.502 388.413,70.022 386.97,70.022 M395.716,70.711 C396.978,68.903 397.607,66.893 397.607,64.684 C397.607,61.766 396.56,59.266 394.474,57.176 C392.388,55.094 389.888,54.047 386.97,54.047 L370.994,54.047 L370.994,80.68 C370.994,83.606 373.368,85.977 376.291,85.977 L376.291,80.68 L376.291,75.364 L385.313,75.364 L391.482,85.997 L397.607,85.997 L391.025,74.536 C392.923,73.768 394.49,72.495 395.716,70.711" fill="#373535"/>
      <path d="M179.167,54.048 L179.167,59.345 L179.167,80.704 C179.167,83.628 181.537,85.997 184.46,85.997 L184.46,80.704 L184.46,59.345 C184.46,56.423 182.089,54.048 179.167,54.048" fill="#373535"/>
      <path d="M548.65,80.661 L537.966,80.661 L537.966,59.345 C537.966,56.423 535.597,54.048 532.675,54.048 L532.675,59.345 L532.675,85.997 L548.65,85.997 C551.599,85.997 553.99,83.606 553.99,80.661 z" fill="#373535"/>
      <path d="M668.435,54.048 L660.933,54.048 L647.122,67.816 L647.122,59.345 C647.122,56.423 644.751,54.048 641.826,54.048 L641.826,59.345 L641.826,80.681 C641.826,83.607 644.197,85.978 647.122,85.978 L647.122,80.681 L647.122,72.278 L660.933,85.997 L668.435,85.997 L652.458,70.023 z" fill="#373535"/>
      <path d="M475.269,54.003 L475.269,59.345 L475.269,72.692 C475.269,74.872 474.47,76.743 472.874,78.31 C471.341,79.872 469.47,80.661 467.257,80.661 C465.05,80.661 463.162,79.872 461.595,78.31 C460.062,76.776 459.294,74.905 459.294,72.692 L459.294,59.345 C459.294,56.423 456.923,54.048 454.001,54.048 L454.001,59.345 L454.001,72.692 C454.001,76.347 455.289,79.491 457.865,82.134 C460.503,84.706 463.636,85.997 467.257,85.997 C470.91,85.997 474.056,84.706 476.699,82.134 C479.304,79.524 480.611,76.378 480.611,72.692 L480.611,59.345 C480.611,56.394 478.22,54.003 475.269,54.003" fill="#373535"/>
    </g>
    <g>
      <path d="M68.902,75.655 L47.53,75.655 L47.53,54.289 C47.53,50.356 44.341,47.167 40.406,47.167 L40.406,54.289 L40.406,75.655 L19.035,75.655 C15.101,75.655 11.911,78.843 11.911,82.78 L19.035,82.78 L40.406,82.78 L40.406,132.652 C40.406,136.584 43.595,139.776 47.53,139.776 L47.53,132.652 L47.53,82.78 L68.902,82.78 C72.835,82.78 76.025,79.588 76.025,75.655 z" fill="#373535"/>
      <path d="M77.072,19.622 C75.668,21.029 73.997,21.729 72.057,21.729 L57.677,21.729 L57.677,7.414 L72.057,7.414 C73.997,7.414 75.668,8.116 77.072,9.523 C78.482,10.924 79.182,12.62 79.182,14.604 C79.182,16.544 78.482,18.218 77.072,19.622 M82.154,4.436 C79.345,1.631 75.979,0.224 72.057,0.224 L50.553,0.224 L50.553,36.075 C50.553,40.012 53.744,43.203 57.677,43.203 L57.677,36.075 L57.677,28.918 L72.057,28.918 C75.979,28.918 79.345,27.536 82.154,24.766 C84.967,21.917 86.371,18.527 86.371,14.604 C86.371,10.637 84.967,7.25 82.154,4.436" fill="#373535"/>
      <path d="M23.055,7.409 C19.132,7.409 15.748,8.813 12.9,11.619 C10.132,14.43 8.75,17.794 8.75,21.714 C8.75,25.636 10.132,29.024 12.9,31.87 C15.748,34.637 19.132,36.021 23.055,36.021 C26.977,36.021 30.342,34.637 33.15,31.87 C35.957,29.024 37.36,25.636 37.36,21.714 C37.36,17.794 35.957,14.43 33.15,11.619 C30.342,8.813 26.977,7.409 23.055,7.409 M23.055,0.224 C29.001,0.224 34.057,2.331 38.228,6.541 C42.481,10.753 44.604,15.812 44.604,21.714 C44.604,27.701 42.481,32.759 38.228,36.886 C34.057,41.099 29.001,43.203 23.055,43.203 C17.109,43.203 12.052,41.099 7.883,36.886 C3.67,32.718 1.565,27.66 1.565,21.714 C1.565,15.812 3.67,10.753 7.883,6.541 C12.01,2.331 17.068,0.224 23.055,0.224" fill="#373535"/>
    </g>
  </g>
</svg>
