<?xml version="1.0" encoding="UTF-8"?>
<!DOCTYPE svg PUBLIC "-//W3C//DTD SVG 1.1//EN" "http://www.w3.org/Graphics/SVG/1.1/DTD/svg11.dtd">
<svg version="1.1" xmlns="http://www.w3.org/2000/svg" xmlns:xlink="http://www.w3.org/1999/xlink" x="0" y="0" width="670" height="180" viewBox="0, 0, 670, 180">
  <g id="Layer_1">
    <g>
      <path d="M117.477,99.613 C114.563,99.613 112.046,100.656 109.928,102.742 C107.87,104.832 106.843,107.332 106.843,110.246 C106.843,113.164 107.87,115.681 109.928,117.795 C112.046,119.853 114.563,120.884 117.477,120.884 C120.395,120.884 122.895,119.853 124.981,117.795 C127.067,115.681 128.111,113.164 128.111,110.246 C128.111,107.332 127.067,104.832 124.981,102.742 C122.895,100.656 120.395,99.613 117.477,99.613 M117.477,94.271 C121.897,94.271 125.655,95.838 128.756,98.967 C131.917,102.099 133.497,105.859 133.497,110.246 C133.497,114.699 131.917,118.457 128.756,121.525 C125.655,124.658 121.897,126.22 117.477,126.22 C113.057,126.22 109.299,124.658 106.198,121.525 C103.069,118.427 101.502,114.666 101.502,110.246 C101.502,105.859 103.069,102.099 106.198,98.967 C109.266,95.838 113.029,94.271 117.477,94.271" fill="#373535"/>
      <path d="M202.596,94.272 L212.633,114.297 L222.67,94.272 L228.608,94.272 L212.633,126.221 L196.658,94.272 z" fill="#373535"/>
      <path d="M425.778,99.613 C422.864,99.613 420.346,100.656 418.229,102.742 C416.171,104.832 415.143,107.332 415.143,110.246 C415.143,113.164 416.171,115.681 418.229,117.795 C420.346,119.853 422.864,120.884 425.778,120.884 C428.696,120.884 431.196,119.853 433.282,117.795 C435.368,115.681 436.415,113.164 436.415,110.246 C436.415,107.332 435.368,104.832 433.282,102.742 C431.196,100.656 428.696,99.613 425.778,99.613 M425.778,94.271 C430.198,94.271 433.96,95.838 437.055,98.967 C440.217,102.099 441.801,105.859 441.801,110.246 C441.801,114.699 440.217,118.457 437.055,121.525 C433.96,124.658 430.198,126.22 425.778,126.22 C421.358,126.22 417.598,124.658 414.499,121.525 C411.37,118.427 409.803,114.666 409.803,110.246 C409.803,105.859 411.37,102.099 414.499,98.967 C417.571,95.838 421.329,94.271 425.778,94.271" fill="#373535"/>
      <path d="M504.499,120.885 C505.972,120.885 507.356,120.604 508.644,120.057 C509.933,119.5 511.062,118.733 512.028,117.75 C512.993,116.768 513.753,115.637 514.304,114.346 C514.856,113.055 515.136,111.692 515.136,110.246 C515.136,108.805 514.856,107.442 514.304,106.151 C513.753,104.862 512.985,103.729 512.003,102.742 C511.02,101.76 509.89,100.992 508.599,100.442 C507.308,99.889 505.944,99.614 504.499,99.614 L499.161,99.614 L499.161,120.885 z M493.866,94.272 L504.499,94.272 C506.679,94.272 508.735,94.694 510.669,95.537 C512.604,96.387 514.296,97.535 515.757,98.992 C517.214,100.449 518.364,102.145 519.208,104.082 C520.052,106.014 520.474,108.067 520.474,110.246 C520.474,112.426 520.052,114.485 519.208,116.416 C518.364,118.352 517.224,120.049 515.778,121.506 C514.337,122.963 512.642,124.112 510.692,124.955 C508.745,125.803 506.679,126.221 504.499,126.221 L493.866,126.221 z" fill="#373535"/>
      <path d="M577.282,99.613 C574.368,99.613 571.852,100.656 569.733,102.742 C567.677,104.832 566.649,107.332 566.649,110.246 C566.649,113.164 567.677,115.681 569.733,117.795 C571.852,119.853 574.368,120.884 577.282,120.884 C580.2,120.884 582.7,119.853 584.786,117.795 C586.874,115.681 587.921,113.164 587.921,110.246 C587.921,107.332 586.874,104.832 584.786,102.742 C582.7,100.656 580.2,99.613 577.282,99.613 M577.282,94.271 C581.702,94.271 585.464,95.838 588.561,98.967 C591.723,102.099 593.305,105.859 593.305,110.246 C593.305,114.699 591.723,118.457 588.561,121.525 C585.464,124.658 581.702,126.22 577.282,126.22 C572.862,126.22 569.104,124.658 566.003,121.525 C562.874,118.427 561.307,114.666 561.307,110.246 C561.307,105.859 562.874,102.099 566.003,98.967 C569.075,95.838 572.835,94.271 577.282,94.271" fill="#373535"/>
      <path d="M619.056,94.272 C621.265,94.272 623.326,94.686 625.245,95.514 C627.165,96.346 628.863,97.495 630.335,98.967 L626.556,102.743 C624.47,100.657 621.97,99.614 619.056,99.614 C617.583,99.614 616.199,99.889 614.913,100.442 C613.622,100.993 612.493,101.756 611.529,102.721 C610.562,103.688 609.794,104.817 609.226,106.102 C608.658,107.393 608.374,108.774 608.374,110.247 C608.374,111.719 608.658,113.104 609.226,114.391 C609.794,115.682 610.554,116.809 611.503,117.776 C612.456,118.741 613.581,119.501 614.888,120.057 C616.191,120.604 617.583,120.885 619.056,120.885 C621.939,120.885 624.443,119.854 626.556,117.795 L630.335,121.526 C628.863,122.999 627.165,124.151 625.245,124.979 C623.326,125.807 621.265,126.221 619.056,126.221 C616.845,126.221 614.775,125.803 612.839,124.956 C610.908,124.112 609.21,122.971 607.753,121.526 C606.296,120.085 605.144,118.397 604.3,116.465 C603.454,114.528 603.033,112.46 603.033,110.247 C603.033,108.1 603.454,106.053 604.3,104.102 C605.144,102.153 606.296,100.45 607.753,98.993 C609.21,97.536 610.908,96.387 612.839,95.538 C614.775,94.694 616.845,94.272 619.056,94.272" fill="#373535"/>
      <path d="M166.965,120.883 L166.965,120.885 L150.992,120.885 L150.992,99.569 C150.992,96.647 148.623,94.272 145.696,94.272 L145.696,99.569 L145.696,126.221 L166.965,126.221 C169.916,126.221 172.307,123.83 172.307,120.883 z" fill="#373535"/>
      <path d="M246.102,120.885 L246.102,112.916 L256.784,112.916 C259.706,112.916 262.077,110.547 262.077,107.625 L256.784,107.625 L246.102,107.625 L246.102,99.614 L256.784,99.614 C259.731,99.614 262.121,97.223 262.121,94.272 L256.784,94.272 L240.809,94.272 L240.809,126.221 L256.784,126.221 C259.731,126.221 262.121,123.83 262.121,120.885 L256.784,120.885 z" fill="#373535"/>
      <path d="M290.954,110.246 L280.275,110.201 L280.275,99.613 L290.954,99.613 C292.399,99.613 293.641,100.137 294.683,101.18 C295.727,102.223 296.251,103.465 296.251,104.908 C296.251,106.383 295.727,107.641 294.683,108.683 C293.641,109.726 292.399,110.246 290.954,110.246 M299.704,110.935 C300.958,109.127 301.592,107.117 301.592,104.908 C301.592,101.99 300.544,99.49 298.458,97.4 C296.372,95.318 293.872,94.271 290.954,94.271 L274.979,94.271 L274.979,120.904 C274.979,123.83 277.349,126.201 280.275,126.201 L280.275,120.904 L280.275,115.588 L289.298,115.588 L295.468,126.221 L301.592,126.221 L295.009,114.76 C296.907,113.992 298.475,112.719 299.704,110.935" fill="#373535"/>
      <path d="M351.184,108.684 C350.141,109.727 348.899,110.247 347.457,110.247 L336.776,110.247 L336.776,99.614 L347.457,99.614 C348.899,99.614 350.141,100.137 351.184,101.18 C352.231,102.223 352.75,103.481 352.75,104.954 C352.75,106.395 352.231,107.641 351.184,108.684 M354.957,97.401 C352.872,95.319 350.371,94.272 347.457,94.272 L331.483,94.272 L331.483,120.905 C331.483,123.83 333.853,126.202 336.776,126.202 L336.776,120.905 L336.776,115.588 L347.457,115.588 C350.371,115.588 352.872,114.561 354.957,112.502 C357.048,110.389 358.091,107.868 358.091,104.954 C358.091,102.008 357.048,99.491 354.957,97.401" fill="#373535"/>
      <path d="M386.97,110.246 L376.291,110.201 L376.291,99.613 L386.97,99.613 C388.413,99.613 389.656,100.137 390.699,101.18 C391.741,102.223 392.265,103.465 392.265,104.908 C392.265,106.383 391.741,107.641 390.699,108.683 C389.656,109.726 388.413,110.246 386.97,110.246 M395.716,110.935 C396.978,109.127 397.607,107.117 397.607,104.908 C397.607,101.99 396.56,99.49 394.474,97.4 C392.388,95.318 389.888,94.271 386.97,94.271 L370.994,94.271 L370.994,120.904 C370.994,123.83 373.368,126.201 376.291,126.201 L376.291,120.904 L376.291,115.588 L385.313,115.588 L391.482,126.221 L397.607,126.221 L391.025,114.76 C392.923,113.992 394.49,112.719 395.716,110.935" fill="#373535"/>
      <path d="M179.167,94.272 L179.167,99.569 L179.167,120.928 C179.167,123.852 181.537,126.221 184.46,126.221 L184.46,120.928 L184.46,99.569 C184.46,96.647 182.089,94.272 179.167,94.272" fill="#373535"/>
      <path d="M548.65,120.885 L537.966,120.885 L537.966,99.569 C537.966,96.647 535.597,94.272 532.675,94.272 L532.675,99.569 L532.675,126.221 L548.65,126.221 C551.599,126.221 553.99,123.83 553.99,120.885 z" fill="#373535"/>
      <path d="M668.435,94.272 L660.933,94.272 L647.122,108.04 L647.122,99.569 C647.122,96.647 644.751,94.272 641.826,94.272 L641.826,99.569 L641.826,120.905 C641.826,123.831 644.197,126.202 647.122,126.202 L647.122,120.905 L647.122,112.502 L660.933,126.221 L668.435,126.221 L652.458,110.247 z" fill="#373535"/>
      <path d="M475.269,94.227 L475.269,99.569 L475.269,112.916 C475.269,115.096 474.47,116.967 472.874,118.534 C471.341,120.096 469.47,120.885 467.257,120.885 C465.05,120.885 463.162,120.096 461.595,118.534 C460.062,117 459.294,115.129 459.294,112.916 L459.294,99.569 C459.294,96.647 456.923,94.272 454.001,94.272 L454.001,99.569 L454.001,112.916 C454.001,116.571 455.289,119.715 457.865,122.358 C460.503,124.93 463.636,126.221 467.257,126.221 C470.91,126.221 474.056,124.93 476.699,122.358 C479.304,119.748 480.611,116.602 480.611,112.916 L480.611,99.569 C480.611,96.618 478.22,94.227 475.269,94.227" fill="#373535"/>
    </g>
    <g>
      <path d="M68.902,115.879 L47.53,115.879 L47.53,94.513 C47.53,90.58 44.341,87.391 40.406,87.391 L40.406,94.513 L40.406,115.879 L19.035,115.879 C15.101,115.879 11.911,119.067 11.911,123.004 L19.035,123.004 L40.406,123.004 L40.406,172.876 C40.406,176.808 43.595,180 47.53,180 L47.53,172.876 L47.53,123.004 L68.902,123.004 C72.835,123.004 76.025,119.812 76.025,115.879 z" fill="#373535"/>
      <path d="M77.072,59.846 C75.668,61.253 73.997,61.953 72.057,61.953 L57.677,61.953 L57.677,47.638 L72.057,47.638 C73.997,47.638 75.668,48.34 77.072,49.747 C78.482,51.148 79.182,52.844 79.182,54.828 C79.182,56.768 78.482,58.442 77.072,59.846 M82.154,44.66 C79.345,41.855 75.979,40.448 72.057,40.448 L50.553,40.448 L50.553,76.299 C50.553,80.236 53.744,83.427 57.677,83.427 L57.677,76.299 L57.677,69.142 L72.057,69.142 C75.979,69.142 79.345,67.76 82.154,64.99 C84.967,62.141 86.371,58.751 86.371,54.828 C86.371,50.861 84.967,47.474 82.154,44.66" fill="#373535"/>
      <path d="M23.055,47.633 C19.132,47.633 15.748,49.037 12.9,51.843 C10.132,54.654 8.75,58.018 8.75,61.938 C8.75,65.86 10.132,69.248 12.9,72.094 C15.748,74.861 19.132,76.245 23.055,76.245 C26.977,76.245 30.342,74.861 33.15,72.094 C35.957,69.248 37.36,65.86 37.36,61.938 C37.36,58.018 35.957,54.654 33.15,51.843 C30.342,49.037 26.977,47.633 23.055,47.633 M23.055,40.448 C29.001,40.448 34.057,42.555 38.228,46.765 C42.481,50.977 44.604,56.036 44.604,61.938 C44.604,67.925 42.481,72.983 38.228,77.11 C34.057,81.323 29.001,83.427 23.055,83.427 C17.109,83.427 12.052,81.323 7.883,77.11 C3.67,72.942 1.565,67.884 1.565,61.938 C1.565,56.036 3.67,50.977 7.883,46.765 C12.01,42.555 17.068,40.448 23.055,40.448" fill="#373535"/>
    </g>
    <g>
      <path d="M168.18,10.447 L162.803,10.447 L162.803,23.747 L168.123,23.747 C172.037,23.747 175.02,20.878 175.02,17.097 C175.02,13.316 172.056,10.447 168.18,10.447 z M168.199,22.341 L164.323,22.341 L164.323,11.853 L168.142,11.853 C171.125,11.853 173.481,14.114 173.481,17.116 C173.481,20.099 171.163,22.341 168.199,22.341 z" fill="#373535"/>
      <path d="M177.794,10.447 L177.794,23.747 L187.066,23.747 L187.066,22.341 L179.314,22.341 L179.314,17.705 L186.021,17.705 L186.021,16.318 L179.314,16.318 L179.314,11.853 L186.819,11.853 L186.819,10.447 z" fill="#373535"/>
      <path d="M197.687,12.974 L198.333,11.625 C197.231,10.884 195.654,10.39 194.115,10.39 C191.36,10.39 189.517,11.72 189.517,13.81 C189.517,18.579 197.003,16.698 196.984,20.251 C196.984,21.543 195.787,22.322 193.868,22.322 C192.367,22.322 190.676,21.638 189.441,20.46 L188.757,21.771 C190.011,22.968 191.911,23.804 193.849,23.804 C196.699,23.804 198.656,22.379 198.656,20.175 C198.675,15.349 191.189,17.154 191.189,13.696 C191.189,12.556 192.31,11.872 194.02,11.872 C195.084,11.872 196.49,12.195 197.687,12.974 z" fill="#373535"/>
      <path d="M201.772,10.447 L201.772,23.747 L203.292,23.747 L203.292,10.447 z" fill="#373535"/>
      <path d="M216.592,21.296 C215.566,21.999 214.293,22.417 213.096,22.417 C210.056,22.417 207.605,20.061 207.605,17.097 C207.605,14.152 210.037,11.796 213.077,11.796 C214.559,11.796 216.022,12.366 217.105,13.335 L217.979,12.233 C216.706,11.112 214.92,10.409 213.077,10.409 C209.163,10.409 206.066,13.354 206.066,17.097 C206.066,20.84 209.144,23.804 213.001,23.804 C214.787,23.804 216.63,23.12 217.941,22.075 L217.941,17.249 L216.592,17.249 z" fill="#373535"/>
      <path d="M221.627,10.447 L221.627,23.747 L223.147,23.747 L223.147,12.955 L231.127,23.747 L232.685,23.747 L232.685,10.447 L231.184,10.447 L231.184,21.258 L223.204,10.447 z" fill="#373535"/>
      <path d="M236.732,10.447 L236.732,23.747 L246.004,23.747 L246.004,22.341 L238.252,22.341 L238.252,17.705 L244.959,17.705 L244.959,16.318 L238.252,16.318 L238.252,11.853 L245.757,11.853 L245.757,10.447 z" fill="#373535"/>
      <path d="M259.532,23.747 L256.397,19.206 C258.316,18.598 259.399,17.097 259.399,14.912 C259.399,12.081 257.48,10.447 254.155,10.447 L249.101,10.447 L249.101,23.747 L250.621,23.747 L250.621,19.529 L254.155,19.529 C254.459,19.529 254.744,19.51 255.01,19.491 L257.803,23.747 z M250.621,18.123 L250.621,11.853 L254.155,11.853 C256.568,11.853 257.936,12.917 257.936,14.95 C257.936,17.04 256.568,18.123 254.155,18.123 z" fill="#373535"/>
      <path d="M277.943,23.747 L279.596,23.747 L273.649,10.447 L272.072,10.447 L266.106,23.747 L267.721,23.747 L269.203,20.346 L276.442,20.346 z M269.83,18.94 L272.813,12.1 L275.834,18.94 z" fill="#373535"/>
      <path d="M281.686,10.447 L281.686,23.747 L283.206,23.747 L283.206,12.955 L291.186,23.747 L292.744,23.747 L292.744,10.447 L291.243,10.447 L291.243,21.258 L283.263,10.447 z" fill="#373535"/>
      <path d="M302.168,10.447 L296.791,10.447 L296.791,23.747 L302.111,23.747 C306.025,23.747 309.008,20.878 309.008,17.097 C309.008,13.316 306.044,10.447 302.168,10.447 z M302.187,22.341 L298.311,22.341 L298.311,11.853 L302.13,11.853 C305.113,11.853 307.469,14.114 307.469,17.116 C307.469,20.099 305.151,22.341 302.187,22.341 z" fill="#373535"/>
      <path d="M316.988,10.447 L316.988,23.747 L324.341,23.747 L324.341,22.341 L318.508,22.341 L318.508,10.447 z" fill="#373535"/>
      <path d="M326.811,10.447 L326.811,23.747 L328.331,23.747 L328.331,10.447 z" fill="#373535"/>
      <path d="M332.359,10.447 L332.359,23.747 L333.879,23.747 L333.879,18.009 L340.092,18.009 L340.092,16.622 L333.879,16.622 L333.879,11.853 L340.814,11.853 L340.814,10.447 z" fill="#373535"/>
      <path d="M343.056,10.447 L343.056,23.747 L352.328,23.747 L352.328,22.341 L344.576,22.341 L344.576,17.705 L351.283,17.705 L351.283,16.318 L344.576,16.318 L344.576,11.853 L352.081,11.853 L352.081,10.447 z" fill="#373535"/>
      <path d="M362.949,12.974 L363.595,11.625 C362.493,10.884 360.916,10.39 359.377,10.39 C356.622,10.39 354.779,11.72 354.779,13.81 C354.779,18.579 362.265,16.698 362.246,20.251 C362.246,21.543 361.049,22.322 359.13,22.322 C357.629,22.322 355.938,21.638 354.703,20.46 L354.019,21.771 C355.273,22.968 357.173,23.804 359.111,23.804 C361.961,23.804 363.918,22.379 363.918,20.175 C363.937,15.349 356.451,17.154 356.451,13.696 C356.451,12.556 357.572,11.872 359.282,11.872 C360.346,11.872 361.752,12.195 362.949,12.974 z" fill="#373535"/>
      <path d="M365.229,10.447 L365.229,11.853 L369.561,11.853 L369.561,23.747 L371.081,23.747 L371.081,11.853 L375.432,11.853 L375.432,10.447 z" fill="#373535"/>
      <path d="M387.402,10.447 L385.844,10.447 L381.588,17.42 L377.275,10.447 L375.698,10.447 L380.847,19.168 L380.847,23.747 L382.348,23.747 L382.348,19.13 z" fill="#373535"/>
      <path d="M389.511,10.447 L389.511,23.747 L396.864,23.747 L396.864,22.341 L391.031,22.341 L391.031,10.447 z" fill="#373535"/>
      <path d="M399.334,10.447 L399.334,23.747 L408.606,23.747 L408.606,22.341 L400.854,22.341 L400.854,17.705 L407.561,17.705 L407.561,16.318 L400.854,16.318 L400.854,11.853 L408.359,11.853 L408.359,10.447 z" fill="#373535"/>
      <path d="M422.514,10.447 L416.909,10.447 L416.909,23.747 L422.609,23.747 C425.611,23.747 427.397,22.398 427.397,20.137 C427.397,18.313 426.276,17.059 424.357,16.774 C425.915,16.451 426.808,15.33 426.808,13.772 C426.808,11.682 425.193,10.447 422.514,10.447 z M422.438,16.204 L418.429,16.204 L418.429,11.853 L422.438,11.853 C424.224,11.853 425.269,12.632 425.269,14 C425.269,15.406 424.224,16.204 422.438,16.204 z M422.438,22.341 L418.429,22.341 L418.429,17.61 L422.438,17.61 C424.604,17.61 425.858,18.465 425.858,19.947 C425.858,21.486 424.604,22.341 422.438,22.341 z" fill="#373535"/>
      <path d="M430.513,10.447 L430.513,23.747 L437.866,23.747 L437.866,22.341 L432.033,22.341 L432.033,10.447 z" fill="#373535"/>
      <path d="M446.055,10.409 C442.16,10.409 439.082,13.354 439.082,17.097 C439.082,20.84 442.16,23.804 446.055,23.804 C449.931,23.804 453.009,20.84 453.009,17.097 C453.009,13.354 449.931,10.409 446.055,10.409 z M446.055,11.815 C449.019,11.815 451.451,14.152 451.451,17.097 C451.451,20.042 449.019,22.417 446.055,22.417 C443.091,22.417 440.621,20.042 440.621,17.097 C440.621,14.152 443.091,11.815 446.055,11.815 z" fill="#373535"/>
      <path d="M465.055,21.296 C464.029,21.999 462.756,22.417 461.559,22.417 C458.519,22.417 456.068,20.061 456.068,17.097 C456.068,14.152 458.5,11.796 461.54,11.796 C463.022,11.796 464.485,12.366 465.568,13.335 L466.442,12.233 C465.169,11.112 463.383,10.409 461.54,10.409 C457.626,10.409 454.529,13.354 454.529,17.097 C454.529,20.84 457.607,23.804 461.464,23.804 C463.25,23.804 465.093,23.12 466.404,22.075 L466.404,17.249 L465.055,17.249 z" fill="#373535"/>
      <path d="M479.362,21.296 C478.336,21.999 477.063,22.417 475.866,22.417 C472.826,22.417 470.375,20.061 470.375,17.097 C470.375,14.152 472.807,11.796 475.847,11.796 C477.329,11.796 478.792,12.366 479.875,13.335 L480.749,12.233 C479.476,11.112 477.69,10.409 475.847,10.409 C471.933,10.409 468.836,13.354 468.836,17.097 C468.836,20.84 471.914,23.804 475.771,23.804 C477.557,23.804 479.4,23.12 480.711,22.075 L480.711,17.249 L479.362,17.249 z" fill="#373535"/>
      <path d="M484.397,10.447 L484.397,23.747 L493.669,23.747 L493.669,22.341 L485.917,22.341 L485.917,17.705 L492.624,17.705 L492.624,16.318 L485.917,16.318 L485.917,11.853 L493.422,11.853 L493.422,10.447 z" fill="#373535"/>
      <path d="M507.197,23.747 L504.062,19.206 C505.981,18.598 507.064,17.097 507.064,14.912 C507.064,12.081 505.145,10.447 501.82,10.447 L496.766,10.447 L496.766,23.747 L498.286,23.747 L498.286,19.529 L501.82,19.529 C502.124,19.529 502.409,19.51 502.675,19.491 L505.468,23.747 z M498.286,18.123 L498.286,11.853 L501.82,11.853 C504.233,11.853 505.601,12.917 505.601,14.95 C505.601,17.04 504.233,18.123 501.82,18.123 z" fill="#373535"/>
    </g>
  </g>
</svg>
