<?xml version="1.0" encoding="UTF-8"?>
<!DOCTYPE svg PUBLIC "-//W3C//DTD SVG 1.1//EN" "http://www.w3.org/Graphics/SVG/1.1/DTD/svg11.dtd">
<svg version="1.1" xmlns="http://www.w3.org/2000/svg" xmlns:xlink="http://www.w3.org/1999/xlink" x="0" y="0" width="670" height="180" viewBox="0, 0, 670, 180">
  <g id="Layer_1">
    <g>
      <path d="M117.477,59.165 C114.563,59.165 112.046,60.208 109.928,62.294 C107.87,64.384 106.843,66.884 106.843,69.798 C106.843,72.716 107.87,75.233 109.928,77.347 C112.046,79.405 114.563,80.436 117.477,80.436 C120.395,80.436 122.895,79.405 124.981,77.347 C127.067,75.233 128.111,72.716 128.111,69.798 C128.111,66.884 127.067,64.384 124.981,62.294 C122.895,60.208 120.395,59.165 117.477,59.165 M117.477,53.823 C121.897,53.823 125.655,55.39 128.756,58.519 C131.917,61.651 133.497,65.411 133.497,69.798 C133.497,74.251 131.917,78.009 128.756,81.077 C125.655,84.21 121.897,85.772 117.477,85.772 C113.057,85.772 109.299,84.21 106.198,81.077 C103.069,77.979 101.502,74.218 101.502,69.798 C101.502,65.411 103.069,61.651 106.198,58.519 C109.266,55.39 113.029,53.823 117.477,53.823" fill="#FFFFFF"/>
      <path d="M202.596,53.824 L212.633,73.849 L222.67,53.824 L228.608,53.824 L212.633,85.773 L196.658,53.824 z" fill="#FFFFFF"/>
      <path d="M425.778,59.165 C422.864,59.165 420.346,60.208 418.229,62.294 C416.171,64.384 415.143,66.884 415.143,69.798 C415.143,72.716 416.171,75.233 418.229,77.347 C420.346,79.405 422.864,80.436 425.778,80.436 C428.696,80.436 431.196,79.405 433.282,77.347 C435.368,75.233 436.415,72.716 436.415,69.798 C436.415,66.884 435.368,64.384 433.282,62.294 C431.196,60.208 428.696,59.165 425.778,59.165 M425.778,53.823 C430.198,53.823 433.96,55.39 437.055,58.519 C440.217,61.651 441.801,65.411 441.801,69.798 C441.801,74.251 440.217,78.009 437.055,81.077 C433.96,84.21 430.198,85.772 425.778,85.772 C421.358,85.772 417.598,84.21 414.499,81.077 C411.37,77.979 409.803,74.218 409.803,69.798 C409.803,65.411 411.37,61.651 414.499,58.519 C417.571,55.39 421.329,53.823 425.778,53.823" fill="#FFFFFF"/>
      <path d="M504.499,80.437 C505.972,80.437 507.356,80.156 508.644,79.609 C509.933,79.052 511.062,78.285 512.028,77.302 C512.993,76.32 513.753,75.189 514.304,73.898 C514.856,72.607 515.136,71.244 515.136,69.798 C515.136,68.357 514.856,66.994 514.304,65.703 C513.753,64.414 512.985,63.281 512.003,62.294 C511.02,61.312 509.89,60.544 508.599,59.994 C507.308,59.441 505.944,59.166 504.499,59.166 L499.161,59.166 L499.161,80.437 z M493.866,53.824 L504.499,53.824 C506.679,53.824 508.735,54.246 510.669,55.089 C512.604,55.939 514.296,57.087 515.757,58.544 C517.214,60.001 518.364,61.697 519.208,63.634 C520.052,65.566 520.474,67.619 520.474,69.798 C520.474,71.978 520.052,74.037 519.208,75.968 C518.364,77.904 517.224,79.601 515.778,81.058 C514.337,82.515 512.642,83.664 510.692,84.507 C508.745,85.355 506.679,85.773 504.499,85.773 L493.866,85.773 z" fill="#FFFFFF"/>
      <path d="M577.282,59.165 C574.368,59.165 571.852,60.208 569.733,62.294 C567.677,64.384 566.649,66.884 566.649,69.798 C566.649,72.716 567.677,75.233 569.733,77.347 C571.852,79.405 574.368,80.436 577.282,80.436 C580.2,80.436 582.7,79.405 584.786,77.347 C586.874,75.233 587.921,72.716 587.921,69.798 C587.921,66.884 586.874,64.384 584.786,62.294 C582.7,60.208 580.2,59.165 577.282,59.165 M577.282,53.823 C581.702,53.823 585.464,55.39 588.561,58.519 C591.723,61.651 593.305,65.411 593.305,69.798 C593.305,74.251 591.723,78.009 588.561,81.077 C585.464,84.21 581.702,85.772 577.282,85.772 C572.862,85.772 569.104,84.21 566.003,81.077 C562.874,77.979 561.307,74.218 561.307,69.798 C561.307,65.411 562.874,61.651 566.003,58.519 C569.075,55.39 572.835,53.823 577.282,53.823" fill="#FFFFFF"/>
      <path d="M619.056,53.824 C621.265,53.824 623.326,54.238 625.245,55.066 C627.165,55.898 628.863,57.047 630.335,58.519 L626.556,62.295 C624.47,60.209 621.97,59.166 619.056,59.166 C617.583,59.166 616.199,59.441 614.913,59.994 C613.622,60.545 612.493,61.308 611.529,62.273 C610.562,63.24 609.794,64.369 609.226,65.654 C608.658,66.945 608.374,68.326 608.374,69.799 C608.374,71.271 608.658,72.656 609.226,73.943 C609.794,75.234 610.554,76.361 611.503,77.328 C612.456,78.293 613.581,79.053 614.888,79.609 C616.191,80.156 617.583,80.437 619.056,80.437 C621.939,80.437 624.443,79.406 626.556,77.347 L630.335,81.078 C628.863,82.551 627.165,83.703 625.245,84.531 C623.326,85.359 621.265,85.773 619.056,85.773 C616.845,85.773 614.775,85.355 612.839,84.508 C610.908,83.664 609.21,82.523 607.753,81.078 C606.296,79.637 605.144,77.949 604.3,76.017 C603.454,74.08 603.033,72.012 603.033,69.799 C603.033,67.652 603.454,65.605 604.3,63.654 C605.144,61.705 606.296,60.002 607.753,58.545 C609.21,57.088 610.908,55.939 612.839,55.09 C614.775,54.246 616.845,53.824 619.056,53.824" fill="#FFFFFF"/>
      <path d="M166.965,80.435 L166.965,80.437 L150.992,80.437 L150.992,59.121 C150.992,56.199 148.623,53.824 145.696,53.824 L145.696,59.121 L145.696,85.773 L166.965,85.773 C169.916,85.773 172.307,83.382 172.307,80.435 z" fill="#FFFFFF"/>
      <path d="M246.102,80.437 L246.102,72.468 L256.784,72.468 C259.706,72.468 262.077,70.099 262.077,67.177 L256.784,67.177 L246.102,67.177 L246.102,59.166 L256.784,59.166 C259.731,59.166 262.121,56.775 262.121,53.824 L256.784,53.824 L240.809,53.824 L240.809,85.773 L256.784,85.773 C259.731,85.773 262.121,83.382 262.121,80.437 L256.784,80.437 z" fill="#FFFFFF"/>
      <path d="M290.954,69.798 L280.275,69.753 L280.275,59.165 L290.954,59.165 C292.399,59.165 293.641,59.689 294.683,60.732 C295.727,61.775 296.251,63.017 296.251,64.46 C296.251,65.935 295.727,67.193 294.683,68.235 C293.641,69.278 292.399,69.798 290.954,69.798 M299.704,70.487 C300.958,68.679 301.592,66.669 301.592,64.46 C301.592,61.542 300.544,59.042 298.458,56.952 C296.372,54.87 293.872,53.823 290.954,53.823 L274.979,53.823 L274.979,80.456 C274.979,83.382 277.349,85.753 280.275,85.753 L280.275,80.456 L280.275,75.14 L289.298,75.14 L295.468,85.773 L301.592,85.773 L295.009,74.312 C296.907,73.544 298.475,72.271 299.704,70.487" fill="#FFFFFF"/>
      <path d="M351.184,68.236 C350.141,69.279 348.899,69.799 347.457,69.799 L336.776,69.799 L336.776,59.166 L347.457,59.166 C348.899,59.166 350.141,59.689 351.184,60.732 C352.231,61.775 352.75,63.033 352.75,64.506 C352.75,65.947 352.231,67.193 351.184,68.236 M354.957,56.953 C352.872,54.871 350.371,53.824 347.457,53.824 L331.483,53.824 L331.483,80.457 C331.483,83.382 333.853,85.754 336.776,85.754 L336.776,80.457 L336.776,75.14 L347.457,75.14 C350.371,75.14 352.872,74.113 354.957,72.054 C357.048,69.941 358.091,67.42 358.091,64.506 C358.091,61.56 357.048,59.043 354.957,56.953" fill="#FFFFFF"/>
      <path d="M386.97,69.798 L376.291,69.753 L376.291,59.165 L386.97,59.165 C388.413,59.165 389.656,59.689 390.699,60.732 C391.741,61.775 392.265,63.017 392.265,64.46 C392.265,65.935 391.741,67.193 390.699,68.235 C389.656,69.278 388.413,69.798 386.97,69.798 M395.716,70.487 C396.978,68.679 397.607,66.669 397.607,64.46 C397.607,61.542 396.56,59.042 394.474,56.952 C392.388,54.87 389.888,53.823 386.97,53.823 L370.994,53.823 L370.994,80.456 C370.994,83.382 373.368,85.753 376.291,85.753 L376.291,80.456 L376.291,75.14 L385.313,75.14 L391.482,85.773 L397.607,85.773 L391.025,74.312 C392.923,73.544 394.49,72.271 395.716,70.487" fill="#FFFFFF"/>
      <path d="M179.167,53.824 L179.167,59.121 L179.167,80.48 C179.167,83.404 181.537,85.773 184.46,85.773 L184.46,80.48 L184.46,59.121 C184.46,56.199 182.089,53.824 179.167,53.824" fill="#FFFFFF"/>
      <path d="M548.65,80.437 L537.966,80.437 L537.966,59.121 C537.966,56.199 535.597,53.824 532.675,53.824 L532.675,59.121 L532.675,85.773 L548.65,85.773 C551.599,85.773 553.99,83.382 553.99,80.437 z" fill="#FFFFFF"/>
      <path d="M668.435,53.824 L660.933,53.824 L647.122,67.592 L647.122,59.121 C647.122,56.199 644.751,53.824 641.826,53.824 L641.826,59.121 L641.826,80.457 C641.826,83.383 644.197,85.754 647.122,85.754 L647.122,80.457 L647.122,72.054 L660.933,85.773 L668.435,85.773 L652.458,69.799 z" fill="#FFFFFF"/>
      <path d="M475.269,53.779 L475.269,59.121 L475.269,72.468 C475.269,74.648 474.47,76.519 472.874,78.086 C471.341,79.648 469.47,80.437 467.257,80.437 C465.05,80.437 463.162,79.648 461.595,78.086 C460.062,76.552 459.294,74.681 459.294,72.468 L459.294,59.121 C459.294,56.199 456.923,53.824 454.001,53.824 L454.001,59.121 L454.001,72.468 C454.001,76.123 455.289,79.267 457.865,81.91 C460.503,84.482 463.636,85.773 467.257,85.773 C470.91,85.773 474.056,84.482 476.699,81.91 C479.304,79.3 480.611,76.154 480.611,72.468 L480.611,59.121 C480.611,56.17 478.22,53.779 475.269,53.779" fill="#FFFFFF"/>
    </g>
    <g>
      <path d="M68.902,75.431 L47.53,75.431 L47.53,54.065 C47.53,50.132 44.341,46.943 40.406,46.943 L40.406,54.065 L40.406,75.431 L19.035,75.431 C15.101,75.431 11.911,78.619 11.911,82.556 L19.035,82.556 L40.406,82.556 L40.406,132.428 C40.406,136.36 43.595,139.552 47.53,139.552 L47.53,132.428 L47.53,82.556 L68.902,82.556 C72.835,82.556 76.025,79.364 76.025,75.431 z" fill="#FFFFFF"/>
      <path d="M77.072,19.398 C75.668,20.805 73.997,21.505 72.057,21.505 L57.677,21.505 L57.677,7.19 L72.057,7.19 C73.997,7.19 75.668,7.892 77.072,9.299 C78.482,10.7 79.182,12.396 79.182,14.38 C79.182,16.32 78.482,17.994 77.072,19.398 M82.154,4.212 C79.345,1.407 75.979,-0 72.057,-0 L50.553,-0 L50.553,35.851 C50.553,39.788 53.744,42.979 57.677,42.979 L57.677,35.851 L57.677,28.694 L72.057,28.694 C75.979,28.694 79.345,27.312 82.154,24.542 C84.967,21.693 86.371,18.303 86.371,14.38 C86.371,10.413 84.967,7.026 82.154,4.212" fill="#FFFFFF"/>
      <path d="M23.055,7.185 C19.132,7.185 15.748,8.589 12.9,11.395 C10.132,14.206 8.75,17.57 8.75,21.49 C8.75,25.412 10.132,28.8 12.9,31.646 C15.748,34.413 19.132,35.797 23.055,35.797 C26.977,35.797 30.342,34.413 33.15,31.646 C35.957,28.8 37.36,25.412 37.36,21.49 C37.36,17.57 35.957,14.206 33.15,11.395 C30.342,8.589 26.977,7.185 23.055,7.185 M23.055,-0 C29.001,-0 34.057,2.107 38.228,6.317 C42.481,10.529 44.604,15.588 44.604,21.49 C44.604,27.477 42.481,32.535 38.228,36.662 C34.057,40.875 29.001,42.979 23.055,42.979 C17.109,42.979 12.052,40.875 7.883,36.662 C3.67,32.494 1.565,27.436 1.565,21.49 C1.565,15.588 3.67,10.529 7.883,6.317 C12.01,2.107 17.068,-0 23.055,-0" fill="#FFFFFF"/>
    </g>
    <g>
      <path d="M168.18,139.609 L162.803,139.609 L162.803,152.909 L168.123,152.909 C172.037,152.909 175.02,150.04 175.02,146.259 C175.02,142.478 172.056,139.609 168.18,139.609 z M168.199,151.503 L164.323,151.503 L164.323,141.015 L168.142,141.015 C171.125,141.015 173.481,143.276 173.481,146.278 C173.481,149.261 171.163,151.503 168.199,151.503 z" fill="#FFFFFF"/>
      <path d="M177.794,139.609 L177.794,152.909 L187.066,152.909 L187.066,151.503 L179.314,151.503 L179.314,146.867 L186.021,146.867 L186.021,145.48 L179.314,145.48 L179.314,141.015 L186.819,141.015 L186.819,139.609 z" fill="#FFFFFF"/>
      <path d="M197.687,142.136 L198.333,140.787 C197.231,140.046 195.654,139.552 194.115,139.552 C191.36,139.552 189.517,140.882 189.517,142.972 C189.517,147.741 197.003,145.86 196.984,149.413 C196.984,150.705 195.787,151.484 193.868,151.484 C192.367,151.484 190.676,150.8 189.441,149.622 L188.757,150.933 C190.011,152.13 191.911,152.966 193.849,152.966 C196.699,152.966 198.656,151.541 198.656,149.337 C198.675,144.511 191.189,146.316 191.189,142.858 C191.189,141.718 192.31,141.034 194.02,141.034 C195.084,141.034 196.49,141.357 197.687,142.136 z" fill="#FFFFFF"/>
      <path d="M201.772,139.609 L201.772,152.909 L203.292,152.909 L203.292,139.609 z" fill="#FFFFFF"/>
      <path d="M216.592,150.458 C215.566,151.161 214.293,151.579 213.096,151.579 C210.056,151.579 207.605,149.223 207.605,146.259 C207.605,143.314 210.037,140.958 213.077,140.958 C214.559,140.958 216.022,141.528 217.105,142.497 L217.979,141.395 C216.706,140.274 214.92,139.571 213.077,139.571 C209.163,139.571 206.066,142.516 206.066,146.259 C206.066,150.002 209.144,152.966 213.001,152.966 C214.787,152.966 216.63,152.282 217.941,151.237 L217.941,146.411 L216.592,146.411 z" fill="#FFFFFF"/>
      <path d="M221.627,139.609 L221.627,152.909 L223.147,152.909 L223.147,142.117 L231.127,152.909 L232.685,152.909 L232.685,139.609 L231.184,139.609 L231.184,150.42 L223.204,139.609 z" fill="#FFFFFF"/>
      <path d="M236.732,139.609 L236.732,152.909 L246.004,152.909 L246.004,151.503 L238.252,151.503 L238.252,146.867 L244.959,146.867 L244.959,145.48 L238.252,145.48 L238.252,141.015 L245.757,141.015 L245.757,139.609 z" fill="#FFFFFF"/>
      <path d="M259.532,152.909 L256.397,148.368 C258.316,147.76 259.399,146.259 259.399,144.074 C259.399,141.243 257.48,139.609 254.155,139.609 L249.101,139.609 L249.101,152.909 L250.621,152.909 L250.621,148.691 L254.155,148.691 C254.459,148.691 254.744,148.672 255.01,148.653 L257.803,152.909 z M250.621,147.285 L250.621,141.015 L254.155,141.015 C256.568,141.015 257.936,142.079 257.936,144.112 C257.936,146.202 256.568,147.285 254.155,147.285 z" fill="#FFFFFF"/>
      <path d="M277.943,152.909 L279.596,152.909 L273.649,139.609 L272.072,139.609 L266.106,152.909 L267.721,152.909 L269.203,149.508 L276.442,149.508 z M269.83,148.102 L272.813,141.262 L275.834,148.102 z" fill="#FFFFFF"/>
      <path d="M281.686,139.609 L281.686,152.909 L283.206,152.909 L283.206,142.117 L291.186,152.909 L292.744,152.909 L292.744,139.609 L291.243,139.609 L291.243,150.42 L283.263,139.609 z" fill="#FFFFFF"/>
      <path d="M302.168,139.609 L296.791,139.609 L296.791,152.909 L302.111,152.909 C306.025,152.909 309.008,150.04 309.008,146.259 C309.008,142.478 306.044,139.609 302.168,139.609 z M302.187,151.503 L298.311,151.503 L298.311,141.015 L302.13,141.015 C305.113,141.015 307.469,143.276 307.469,146.278 C307.469,149.261 305.151,151.503 302.187,151.503 z" fill="#FFFFFF"/>
      <path d="M316.988,139.609 L316.988,152.909 L324.341,152.909 L324.341,151.503 L318.508,151.503 L318.508,139.609 z" fill="#FFFFFF"/>
      <path d="M326.811,139.609 L326.811,152.909 L328.331,152.909 L328.331,139.609 z" fill="#FFFFFF"/>
      <path d="M332.359,139.609 L332.359,152.909 L333.879,152.909 L333.879,147.171 L340.092,147.171 L340.092,145.784 L333.879,145.784 L333.879,141.015 L340.814,141.015 L340.814,139.609 z" fill="#FFFFFF"/>
      <path d="M343.056,139.609 L343.056,152.909 L352.328,152.909 L352.328,151.503 L344.576,151.503 L344.576,146.867 L351.283,146.867 L351.283,145.48 L344.576,145.48 L344.576,141.015 L352.081,141.015 L352.081,139.609 z" fill="#FFFFFF"/>
      <path d="M362.949,142.136 L363.595,140.787 C362.493,140.046 360.916,139.552 359.377,139.552 C356.622,139.552 354.779,140.882 354.779,142.972 C354.779,147.741 362.265,145.86 362.246,149.413 C362.246,150.705 361.049,151.484 359.13,151.484 C357.629,151.484 355.938,150.8 354.703,149.622 L354.019,150.933 C355.273,152.13 357.173,152.966 359.111,152.966 C361.961,152.966 363.918,151.541 363.918,149.337 C363.937,144.511 356.451,146.316 356.451,142.858 C356.451,141.718 357.572,141.034 359.282,141.034 C360.346,141.034 361.752,141.357 362.949,142.136 z" fill="#FFFFFF"/>
      <path d="M365.229,139.609 L365.229,141.015 L369.561,141.015 L369.561,152.909 L371.081,152.909 L371.081,141.015 L375.432,141.015 L375.432,139.609 z" fill="#FFFFFF"/>
      <path d="M387.402,139.609 L385.844,139.609 L381.588,146.582 L377.275,139.609 L375.698,139.609 L380.847,148.33 L380.847,152.909 L382.348,152.909 L382.348,148.292 z" fill="#FFFFFF"/>
      <path d="M389.511,139.609 L389.511,152.909 L396.864,152.909 L396.864,151.503 L391.031,151.503 L391.031,139.609 z" fill="#FFFFFF"/>
      <path d="M399.334,139.609 L399.334,152.909 L408.606,152.909 L408.606,151.503 L400.854,151.503 L400.854,146.867 L407.561,146.867 L407.561,145.48 L400.854,145.48 L400.854,141.015 L408.359,141.015 L408.359,139.609 z" fill="#FFFFFF"/>
      <path d="M422.514,139.609 L416.909,139.609 L416.909,152.909 L422.609,152.909 C425.611,152.909 427.397,151.56 427.397,149.299 C427.397,147.475 426.276,146.221 424.357,145.936 C425.915,145.613 426.808,144.492 426.808,142.934 C426.808,140.844 425.193,139.609 422.514,139.609 z M422.438,145.366 L418.429,145.366 L418.429,141.015 L422.438,141.015 C424.224,141.015 425.269,141.794 425.269,143.162 C425.269,144.568 424.224,145.366 422.438,145.366 z M422.438,151.503 L418.429,151.503 L418.429,146.772 L422.438,146.772 C424.604,146.772 425.858,147.627 425.858,149.109 C425.858,150.648 424.604,151.503 422.438,151.503 z" fill="#FFFFFF"/>
      <path d="M430.513,139.609 L430.513,152.909 L437.866,152.909 L437.866,151.503 L432.033,151.503 L432.033,139.609 z" fill="#FFFFFF"/>
      <path d="M446.055,139.571 C442.16,139.571 439.082,142.516 439.082,146.259 C439.082,150.002 442.16,152.966 446.055,152.966 C449.931,152.966 453.009,150.002 453.009,146.259 C453.009,142.516 449.931,139.571 446.055,139.571 z M446.055,140.977 C449.019,140.977 451.451,143.314 451.451,146.259 C451.451,149.204 449.019,151.579 446.055,151.579 C443.091,151.579 440.621,149.204 440.621,146.259 C440.621,143.314 443.091,140.977 446.055,140.977 z" fill="#FFFFFF"/>
      <path d="M465.055,150.458 C464.029,151.161 462.756,151.579 461.559,151.579 C458.519,151.579 456.068,149.223 456.068,146.259 C456.068,143.314 458.5,140.958 461.54,140.958 C463.022,140.958 464.485,141.528 465.568,142.497 L466.442,141.395 C465.169,140.274 463.383,139.571 461.54,139.571 C457.626,139.571 454.529,142.516 454.529,146.259 C454.529,150.002 457.607,152.966 461.464,152.966 C463.25,152.966 465.093,152.282 466.404,151.237 L466.404,146.411 L465.055,146.411 z" fill="#FFFFFF"/>
      <path d="M479.362,150.458 C478.336,151.161 477.063,151.579 475.866,151.579 C472.826,151.579 470.375,149.223 470.375,146.259 C470.375,143.314 472.807,140.958 475.847,140.958 C477.329,140.958 478.792,141.528 479.875,142.497 L480.749,141.395 C479.476,140.274 477.69,139.571 475.847,139.571 C471.933,139.571 468.836,142.516 468.836,146.259 C468.836,150.002 471.914,152.966 475.771,152.966 C477.557,152.966 479.4,152.282 480.711,151.237 L480.711,146.411 L479.362,146.411 z" fill="#FFFFFF"/>
      <path d="M484.397,139.609 L484.397,152.909 L493.669,152.909 L493.669,151.503 L485.917,151.503 L485.917,146.867 L492.624,146.867 L492.624,145.48 L485.917,145.48 L485.917,141.015 L493.422,141.015 L493.422,139.609 z" fill="#FFFFFF"/>
      <path d="M507.197,152.909 L504.062,148.368 C505.981,147.76 507.064,146.259 507.064,144.074 C507.064,141.243 505.145,139.609 501.82,139.609 L496.766,139.609 L496.766,152.909 L498.286,152.909 L498.286,148.691 L501.82,148.691 C502.124,148.691 502.409,148.672 502.675,148.653 L505.468,152.909 z M498.286,147.285 L498.286,141.015 L501.82,141.015 C504.233,141.015 505.601,142.079 505.601,144.112 C505.601,146.202 504.233,147.285 501.82,147.285 z" fill="#FFFFFF"/>
    </g>
  </g>
</svg>
